<svg width="24" height="24" viewBox="0 0 24 24" fill="none" xmlns="http://www.w3.org/2000/svg">
<polygon points="20.69,14.33 18.36,18.36 14.33,20.69 9.67,20.69 5.64,18.36 3.31,14.33 3.31,9.67 5.64,5.64 9.67,3.31 14.33,3.31 18.36,5.64 20.69,9.67" fill="none" stroke="#000000" stroke-width="1.6"/>
<line x1="12" y1="12" x2="20.69" y2="14.33" stroke="#000000" stroke-width="1"/>
<line x1="12" y1="12" x2="18.36" y2="18.36" stroke="#000000" stroke-width="1"/>
<line x1="12" y1="12" x2="14.33" y2="20.69" stroke="#000000" stroke-width="1"/>
<line x1="12" y1="12" x2="9.67" y2="20.69" stroke="#000000" stroke-width="1"/>
<line x1="12" y1="12" x2="5.64" y2="18.36" stroke="#000000" stroke-width="1"/>
<line x1="12" y1="12" x2="3.31" y2="14.33" stroke="#000000" stroke-width="1"/>
<line x1="12" y1="12" x2="3.31" y2="9.67" stroke="#000000" stroke-width="1"/>
<line x1="12" y1="12" x2="5.64" y2="5.64" stroke="#000000" stroke-width="1"/>
<line x1="12" y1="12" x2="9.67" y2="3.31" stroke="#000000" stroke-width="1"/>
<line x1="12" y1="12" x2="14.33" y2="3.31" stroke="#000000" stroke-width="1"/>
<line x1="12" y1="12" x2="18.36" y2="5.64" stroke="#000000" stroke-width="1"/>
<line x1="12" y1="12" x2="20.69" y2="9.67" stroke="#000000" stroke-width="1"/>
<circle cx="12" cy="12" r="1.2" fill="#000000"/>
</svg>
